<?xml version="1.0" standalone="no"?>
<!DOCTYPE svg PUBLIC "-//W3C//DTD SVG 20010904//EN"
 "http://www.w3.org/TR/2001/REC-SVG-20010904/DTD/svg10.dtd">
<svg version="1.0" xmlns="http://www.w3.org/2000/svg"
 width="260.000000pt" height="260.000000pt" viewBox="0 0 260.000000 260.000000"
 preserveAspectRatio="xMidYMid meet">
<metadata>
Created by potrace 1.11, written by Peter Selinger 2001-2013
</metadata>
<g transform="translate(0.000000,260.000000) scale(0.100000,-0.100000)"
fill="#000000" stroke="none">
<path d="M704 2285 c-229 -31 -360 -88 -463 -201 -66 -72 -93 -143 -99 -260
-5 -114 12 -179 71 -266 24 -35 70 -85 103 -111 104 -85 205 -126 434 -175 17
-3 2 -9 -50 -17 -163 -27 -270 -76 -350 -161 -88 -93 -129 -220 -130 -404 -1
-99 -11 -154 -38 -189 -37 -50 -118 -44 -152 12 -29 47 -24 10 6 -51 53 -108
153 -158 293 -150 89 5 141 28 193 86 61 68 79 133 89 332 13 250 36 350 101
442 24 35 99 79 147 88 l36 7 -30 7 c-147 36 -239 130 -290 296 -25 82 -31
277 -11 369 44 208 162 328 334 339 l73 5 -3 -874 -3 -874 -22 -56 c-27 -65
-78 -118 -125 -129 -26 -6 -15 -8 47 -9 44 -1 137 -4 208 -8 93 -4 127 -3 127
5 0 7 -15 12 -33 12 -85 0 -158 107 -177 260 -15 127 -13 657 3 663 9 4 9 6 0
6 -10 1 -13 109 -13 488 0 321 3 484 10 477 5 -5 59 -104 120 -219 l110 -210
0 -737 0 -738 200 0 200 0 2 356 3 355 187 -353 187 -353 210 -3 210 -2 3 862
c3 846 4 864 24 925 29 82 59 122 111 145 23 10 43 21 43 23 0 3 -109 4 -242
4 -181 -1 -229 -4 -188 -10 111 -18 186 -82 222 -187 9 -28 13 -234 15 -862
l3 -825 -161 315 c-88 173 -266 525 -395 781 l-234 467 0 154 0 155 -122 6
c-196 11 -694 6 -794 -8z"/>
<path d="M2035 2280 c-14 -7 -8 -8 20 -3 22 3 42 7 44 9 9 8 -45 2 -64 -6z"/>
<path d="M1974 2254 c-18 -14 -18 -14 6 -3 31 14 36 19 24 19 -6 0 -19 -7 -30
-16z"/>
<path d="M1914 2208 l-29 -33 33 29 c30 28 37 36 29 36 -2 0 -16 -15 -33 -32z"/>
<path d="M2180 2186 c0 -2 7 -7 16 -10 8 -3 12 -2 9 4 -6 10 -25 14 -25 6z"/>
<path d="M2240 2145 c13 -14 26 -25 28 -25 3 0 -5 11 -18 25 -13 14 -26 25
-28 25 -3 0 5 -11 18 -25z"/>
<path d="M1851 2094 c0 -11 3 -14 6 -6 3 7 2 16 -1 19 -3 4 -6 -2 -5 -13z"/>
<path d="M1842 2025 c0 -16 2 -22 5 -12 2 9 2 23 0 30 -3 6 -5 -1 -5 -18z"/>
<path d="M2291 1954 c0 -11 3 -14 6 -6 3 7 2 16 -1 19 -3 4 -6 -2 -5 -13z"/>
<path d="M2234 1848 l-19 -23 23 19 c21 18 27 26 19 26 -2 0 -12 -10 -23 -22z"/>
<path d="M2063 1783 c9 -2 23 -2 30 0 6 3 -1 5 -18 5 -16 0 -22 -2 -12 -5z"/>
<path d="M3 620 c0 -25 2 -35 4 -22 2 12 2 32 0 45 -2 12 -4 2 -4 -23z"/>
</g>
</svg>
